# xmcd
#
# Track frame offsets:
#  225
#  12361
#  25316
#  38565
#  50860
#  61788
#  72915
#  85349
#  96619
#  108215
#  127741
#  140961
#  153129
#  166453
#  178589
#  192624
#
# Disc length: 2769 seconds
#
# Revision: 0
# Processed by: cddbd v1.5.2PL0 Copyright (c) Steve Scherf et al.
# Submitted via: Collectorz.com_Music_Collector 6.11
#
DISCID=df0ace10
DTITLE=Tammy Wynette - 16 Biggest Hits
DYEAR=1999
DGENRE=Country
TTITLE0=I Don't Wanna Play House
TTITLE1=Take Me To Your World
TTITLE2=D-I-V-O-R-C-E
TTITLE3=Stand By Your Man
TTITLE4=Singing My Song
TTITLE5=The Ways To Love A Man
TTITLE6=He Loves Me All The Way
TTITLE7=Run, Woman Run
TTITLE8=Good Lovin
TTITLE9=Bedtime Story
TTITLE10=My Man (Understands)
TTITLE11=Til I Get It Right
TTITLE12=Kids Say The Darndest Things
TTITLE13=Another Lonely Song
TTITLE14=Til I Can Make It On My Own
TTITLE15=You And Me
EXTD=
EXTT0=
EXTT1=
EXTT2=
EXTT3=
EXTT4=
EXTT5=
EXTT6=
EXTT7=
EXTT8=
EXTT9=
EXTT10=
EXTT11=
EXTT12=
EXTT13=
EXTT14=
EXTT15=
PLAYORDER=
